<svg xmlns="http://www.w3.org/2000/svg" viewBox="0 0 445 271.8"><defs><style>.cls-1{fill:#32caf8}.cls-2{fill:#00aaf8;opacity:.5}.cls-3{fill:#fff}.cls-4{fill:#426572}</style></defs><title>Asset 500</title><g id="Layer_2" data-name="Layer 2"><g id="Layer_1-2" data-name="Layer 1"><rect width="433" height="259.8" x="6" y="8.17" class="cls-1" rx="12" ry="12"/><path d="M439,21.16V255a13,13,0,0,1-13,13H28.72l381-259.8H426A13,13,0,0,1,439,21.16Z" class="cls-2"/><path d="M328,33.24h88.92c3.86,0,3.87-6,0-6H328c-3.86,0-3.87,6,0,6Z" class="cls-3"/><path d="M283.49,33.24H312.6c3.86,0,3.87-6,0-6H283.49c-3.86,0-3.87,6,0,6Z" class="cls-3"/><path d="M427,271.8H18a18,18,0,0,1-18-18V18A18,18,0,0,1,18,0H427a18,18,0,0,1,18,18V253.8A18,18,0,0,1,427,271.8ZM18,12a6,6,0,0,0-6,6V253.8a6,6,0,0,0,6,6H427a6,6,0,0,0,6-6V18a6,6,0,0,0-6-6Z" class="cls-4"/><rect width="12" height="20.57" x="37.89" y="125.08" class="cls-4"/><rect width="12" height="20.57" x="55.93" y="125.08" class="cls-4"/><rect width="12" height="20.57" x="73.97" y="125.08" class="cls-4"/><rect width="12" height="20.57" x="92.01" y="125.08" class="cls-4"/><rect width="12" height="20.57" x="118.71" y="125.08" class="cls-4"/><rect width="12" height="20.57" x="136.76" y="125.08" class="cls-4"/><rect width="12" height="20.57" x="154.8" y="125.08" class="cls-4"/><rect width="12" height="20.57" x="172.84" y="125.08" class="cls-4"/><rect width="12" height="20.57" x="199.54" y="125.08" class="cls-4"/><rect width="12" height="20.57" x="217.58" y="125.08" class="cls-4"/><rect width="12" height="20.57" x="235.63" y="125.08" class="cls-4"/><rect width="12" height="20.57" x="253.67" y="125.08" class="cls-4"/><rect width="12" height="20.57" x="280.37" y="125.08" class="cls-4"/><rect width="12" height="20.57" x="298.41" y="125.08" class="cls-4"/><rect width="12" height="20.57" x="316.45" y="125.08" class="cls-4"/><rect width="12" height="20.57" x="334.49" y="125.08" class="cls-4"/><rect width="161.29" height="12" x="43.89" y="177.53" class="cls-4"/><rect width="68.2" height="12" x="43.89" y="204.59" class="cls-4"/><circle cx="379.46" cy="207.35" r="23.82" class="cls-3"/><rect width="72.53" height="47.63" x="43.89" y="36.31" class="cls-3" rx="12" ry="12"/><path d="M104.42,88.86H55.89a18,18,0,0,1-18-18V47.23a18,18,0,0,1,18-18h48.53a18,18,0,0,1,18,18V70.86A18,18,0,0,1,104.42,88.86ZM55.89,41.23a6,6,0,0,0-6,6V70.86a6,6,0,0,0,6,6h48.53a6,6,0,0,0,6-6V47.23a6,6,0,0,0-6-6Z" class="cls-4"/><path d="M379.46,241.49a29.81,29.81,0,1,1,29.82-29.82A29.85,29.85,0,0,1,379.46,241.49Zm0-47.63a17.81,17.81,0,1,0,17.82,17.81A17.84,17.84,0,0,0,379.46,193.86Z" class="cls-4"/></g></g></svg>